<svg xmlns="http://www.w3.org/2000/svg" width="88.184" height="91.13" viewBox="0 0 88.184 91.13"><g transform="translate(-4.7 0.1)"><g transform="translate(4.7 -0.1)"><g transform="translate(0 0)"><path d="M132.145,10.841a5.894,5.894,0,1,0-5.956,0,7.33,7.33,0,0,0-4.389,6.709v1.473a1.472,1.472,0,0,0,1.473,1.473h4.42V30.778h2.947V20.5h4.42a1.472,1.472,0,0,0,1.473-1.473V17.549A7.45,7.45,0,0,0,132.145,10.841Zm-2.978-7.963a2.947,2.947,0,1,1-2.947,2.947A2.943,2.943,0,0,1,129.167,2.878Zm-4.42,14.7a4.42,4.42,0,1,1,8.84,0h-8.84Z" transform="translate(-85.091 0.1)" fill="#bbdff7"/><path d="M6.173,53.3H17.929A1.472,1.472,0,0,0,19.4,51.823v-.188l15.361,10.22,1.63-2.445L18.9,47.779a7.408,7.408,0,0,0-3.887-4.138,5.851,5.851,0,1,0-5.925.031A7.33,7.33,0,0,0,4.7,50.381v1.473A1.465,1.465,0,0,0,6.173,53.3Zm5.862-17.618a2.947,2.947,0,1,1-2.947,2.947A2.943,2.943,0,0,1,12.036,35.678Zm0,10.282a4.415,4.415,0,0,1,4.42,4.42H7.647A4.408,4.408,0,0,1,12.036,45.96Z" transform="translate(-4.7 -22.418)" fill="#bbdff7"/><path d="M212.2,43.741a5.894,5.894,0,1,0-5.956,0,7.312,7.312,0,0,0-3.887,4.138L184.9,59.509l1.63,2.445,15.361-10.22v.188a1.472,1.472,0,0,0,1.473,1.473H215.12a1.472,1.472,0,0,0,1.473-1.473V50.449A7.381,7.381,0,0,0,212.2,43.741Zm-2.978-7.994a2.947,2.947,0,1,1-2.947,2.947A2.943,2.943,0,0,1,209.227,35.747Zm-4.42,14.7a4.42,4.42,0,1,1,8.84,0Z" transform="translate(-128.41 -22.486)" fill="#bbdff7"/><path d="M212.2,174.941a5.894,5.894,0,1,0-5.956,0,7.35,7.35,0,0,0-2.163,1.473l-17.524-12.132L184.9,166.7l17.555,12.163a7.641,7.641,0,0,0-.564,2.79v1.473a1.472,1.472,0,0,0,1.473,1.473H215.12a1.472,1.472,0,0,0,1.473-1.473v-1.473A7.449,7.449,0,0,0,212.2,174.941Zm-2.978-7.994a2.947,2.947,0,1,1-2.947,2.947A2.943,2.943,0,0,1,209.227,166.947Zm-4.42,14.7a4.42,4.42,0,0,1,8.84,0Z" transform="translate(-128.41 -112.557)" fill="#bbdff7"/><path d="M132.145,213.323a5.841,5.841,0,0,0-1.5-10.721V192.1h-2.947v10.5a5.841,5.841,0,0,0-1.5,10.721,7.363,7.363,0,0,0-4.389,6.709V221.5a1.472,1.472,0,0,0,1.473,1.473h11.756A1.472,1.472,0,0,0,136.5,221.5v-1.473A7.369,7.369,0,0,0,132.145,213.323Zm-2.978-7.963a2.947,2.947,0,1,1-2.947,2.947A2.943,2.943,0,0,1,129.167,205.36Zm-4.42,14.7a4.42,4.42,0,0,1,8.84,0Z" transform="translate(-85.091 -131.848)" fill="#bbdff7"/><path d="M34.732,164.282,17.208,176.414a6.8,6.8,0,0,0-2.163-1.473,5.894,5.894,0,1,0-5.956,0A7.363,7.363,0,0,0,4.7,181.649v1.473A1.472,1.472,0,0,0,6.173,184.6H17.929a1.472,1.472,0,0,0,1.473-1.473v-1.473a6.828,6.828,0,0,0-.564-2.79L36.393,166.7Zm-22.7,2.665a2.947,2.947,0,1,1-2.947,2.947A2.943,2.943,0,0,1,12.036,166.947Zm-4.389,14.7a4.42,4.42,0,0,1,8.84,0Z" transform="translate(-4.7 -112.557)" fill="#bbdff7"/></g></g><g transform="translate(37.961 29.932)"><path d="M130.612,95.7H112.65a1.853,1.853,0,0,0-1.85,1.85v27.43a1.853,1.853,0,0,0,1.85,1.85h17.963a1.853,1.853,0,0,0,1.85-1.85V97.55A1.873,1.873,0,0,0,130.612,95.7Zm-6.865,28.308a1.191,1.191,0,0,1-1.191,1.191h-1.85a1.191,1.191,0,0,1-1.191-1.191v-1.223a1.191,1.191,0,0,1,1.191-1.191h1.85a1.191,1.191,0,0,1,1.191,1.191Zm7.367-4.828a.91.91,0,0,1-.909.909H113.057a.91.91,0,0,1-.909-.909v-20.6a.91.91,0,0,1,.909-.909H130.2a.91.91,0,0,1,.909.909Z" transform="translate(-110.8 -95.7)" fill="#bbdff7"/><path d="M139.259,126.5a3.022,3.022,0,0,0,2.759-3.2c0-2.445-1.223-3.2-2.759-3.2-1.5,0-2.759.752-2.759,3.2A3.044,3.044,0,0,0,139.259,126.5Z" transform="translate(-128.443 -112.451)" fill="#bbdff7"/><path d="M136.464,142.422a.834.834,0,0,0-.314-.345l-2.163-1.129a.143.143,0,0,0-.157,0,3.292,3.292,0,0,1-2.069.69,3.49,3.49,0,0,1-2.069-.69.14.14,0,0,0-.157,0l-2.163,1.129a.68.68,0,0,0-.313.345l-1.379,3.1a.7.7,0,0,0,.063.658.713.713,0,0,0,.6.314h10.847a.758.758,0,0,0,.6-.314.7.7,0,0,0,.063-.658Z" transform="translate(-120.978 -126.748)" fill="#bbdff7"/></g></g></svg>