<svg xmlns="http://www.w3.org/2000/svg" xmlns:xlink="http://www.w3.org/1999/xlink" width="716.002" height="656.894" viewBox="0 0 716.002 656.894"><defs><linearGradient id="a" x1="0.5" y1="1" x2="0.5" gradientUnits="objectBoundingBox"><stop offset="0" stop-color="gray" stop-opacity="0.251"/><stop offset="0.54" stop-color="gray" stop-opacity="0.122"/><stop offset="1" stop-color="gray" stop-opacity="0.102"/></linearGradient></defs><g transform="translate(0 -0.023)"><path d="M574.339,159.77c-39.245-1.361-76.622-14.024-112.294-27.869S390.98,102.7,352.677,95.319c-24.639-4.721-52.811-5.393-72.663,7.811-19.1,12.713-25.278,34.655-28.59,55.016-2.459,15.32-3.967,31.442,2.877,45.778,4.746,9.959,13.18,18.328,19.008,27.869,20.295,33.18,5.951,74.1-16.041,106.5-10.311,15.2-22.279,29.7-30.237,45.9s-11.647,34.713-4.68,51.221c6.9,16.393,23.352,28.639,41.172,37.287,36.2,17.549,78.844,22.574,120.433,25.41,92.065,6.3,184.613,3.574,276.924.82,34.155-1.016,68.467-2.041,102.073-7.32,18.664-2.934,37.934-7.59,51.483-18.852,17.213-14.27,21.459-38.426,9.934-56.319-19.336-30.008-72.778-37.467-86.294-69.672-7.434-17.729.2-37.475,11.008-53.909,23.188-35.246,62.049-66.213,64.1-106.556,1.41-27.68-17.279-55.409-46.164-68.516-30.278-13.729-72.27-12-94.606,10.729C649.412,151.975,608.986,160.975,574.339,159.77Z" transform="translate(-173.236 -57.021)" fill="#6c63ff" opacity="0.1"/><ellipse cx="249.154" cy="33.705" rx="249.154" ry="33.705" transform="translate(73.999 589.507)" fill="#6c63ff" opacity="0.1"/><path d="M580.96,221.086s-7.713-15.221-6.672-19.746-5.426-14.188-5.426-14.188l.418-16.033s-.893,1.639-5.549,3.074c-.393-.516-.82-1.025-1.262-1.508a33.046,33.046,0,0,0-5.59-4.664l-8.2-17.688-7.926-12.139s-12.5-25.41-25.41-31.016l-2.033-3.975a.312.312,0,0,0,.123-.4l-2.065-4.041a.32.32,0,0,0-.4-.148l-1.975-3.869A31.073,31.073,0,0,0,503.255,80.9c-.2-.287-.426-.549-.639-.82l3.213-.115c2.82-.107,5.967-.352,7.861-2.459a7.188,7.188,0,0,0,1.467-2.7,11.476,11.476,0,0,0,.475-2.4c0-.123,0-.246,0-.361v-2a6.592,6.592,0,0,0-.139-.82.564.564,0,0,0-.066-.32,9.543,9.543,0,0,0-.254-.951,1.27,1.27,0,0,1-.057-.189c-.115-.328-.238-.656-.377-.975a.909.909,0,0,1-.057-.131c-.148-.32-.311-.631-.484-.934l-.049-.1h0a3.293,3.293,0,0,0-.2-.369c-2.221-3.492-6.123-5.533-9.836-7.377a113.677,113.677,0,0,0-10.656-4.918,57.376,57.376,0,0,0-41.8.59,16.548,16.548,0,0,0-3.721,1.984,19.23,19.23,0,0,0-4.057,4.77l-6.352,9.385a13.262,13.262,0,0,0-2.057,3.787C434.272,77.931,438,82.4,437.584,87c-.213,2.287-1.443,4.385-1.68,6.672-.3,2.951,1.066,5.8,2.4,8.459l9.09,18.033c-.484,2.369-1.016,4.8-1.6,7.139h0c-4.188,4.328-5.6,6.688-5.984,7.967l-.123.066h0a7.377,7.377,0,0,0-2.1,2.049l-8.639,8.393s-15.016,3.9-18.139,8.844c0,0-23.565-1.033-23.36,31.877,0,0-1.041,12.344-1.639,13.992s0,18.3,0,18.3l-.279,33.737s-.9,17.893,0,24.27,1.943,30.647,1.943,30.647,5.631,23.656,3.549,32.09c-2,8.074,0,25.729,3.279,25.8.623,1.287,1.336,1.918,2.115,1.557a9.023,9.023,0,0,1,1.041-.377v20.156s-4.057,28.237.492,33.606a109.9,109.9,0,0,0-7.459,13.549l-31.885-1.713-4.057,1.139h0L350.83,434.3l-2.254,51.86.9.066-.066,1.582,2.131.156-2.967,52.229,44.139,3.631c-1.943,4.352-4.2,9.016-5.074,9.467-1.639.82-5.213-1.639-6.049-.623a6.788,6.788,0,0,1-6.254,1.639c-2.918-.623-4.8,2.672-4.8,2.672s.426.377,1.066,1.074c-4.738-.574-10.729,1.967-13.984,3.607-1.459.738-2.369,1.287-2.369,1.287H346.65l4.729,30.172,3.336,2.279.82,23.77s13.344,41.139,19.459,40.868A2.762,2.762,0,0,0,377.051,659c3.279-3.787,1.008-16.795,1.008-16.795V620.55s5-2.2,4.443-3.844,8.066-19.672,8.836-21.311a.139.139,0,0,0,.066-.131c0-1.852,3.754-3.91,3.541-4.729s9.18-5.967,9.836-10.492,6.877-2.057,6.877-2.057l7.918-9.1c.238,11.09.689,18.852,1.467,20.819,3.754,9.467,5.213,24.279,5.213,24.279s-2.3,11.311,0,15.016c1.41,2.262,4.688,4.688,6.967,6.7-2.369,7.18-2.033,22.442-2.033,22.442v8.77l17.516,4.918s.549-4.385,1.385-4.385,11.959,8.5,11.959,8.5,42.819.549,53.655,0c4.1-.2,5.213-1.967,4.582-4.1-1.041-3.549-6.885-8.147-12.082-8.5-8.344-.549-18.91-9.32-18.91-9.32s.82-1.926-3.615-4.664c-3.066-1.885-11.549-9.516-16.795-13.984.246-.336.5-.672.738-1.033,0,0-7.09-9.836-5.623-14.2s-.631-10.656-.631-10.656-3.959-12.139-3.959-18.311c0-3.91-.59-26.147-1.016-41.918l3.656.3.074-1.574,1.639.148,15.5,1.426L478.788,533c7.467-3.279,13.68-6.32,16.254-8.262,8.754-6.557,16.262-6.992,16.262-6.992s17.721-9.459,20.434-13.369,2.459-32.295,2.459-32.295l-1.459-60.836V411.2s-1.246-29.41-3.754-35.787c-.918-2.361-3.189-10.229-5.672-19.213a14.842,14.842,0,0,1,4.279.18c.09,2.2.148,3.7.148,4.221,0,3.492,5,6.459,5,6.459L529.2,288.372V234.84c10.918,3.475,37.319,4.557,37.319,4.557C585.541,238.4,580.96,221.086,580.96,221.086ZM477.977,153.48h-.057a54.576,54.576,0,0,1,1.516-6.107ZM406.322,423.371c6.467,1.066,13.934.754,14.5-.5.057-.123.131-.344.229-.631.2.361.4.729.607,1.107l-.631,11.869v.27l-21.311-1.148C401.207,427.986,404.027,424.887,406.322,423.371Zm71.04,59.885-.549-19.221c.951-3.541,1.8-6.754,2.533-9.508.328,2.287.607,4.393.82,6.336C482.182,479.1,479.206,482.657,477.362,483.256Zm60.655-288.178c-1.221.467-5.869-2.459-10.279-5.492,0-.557.041-1.107.066-1.639.623-12.549-19.811-20.36-26.065-21.8a22.466,22.466,0,0,1-4.393-1.639,102.458,102.458,0,0,1-9.7-5.484l.082-.238s-8.065-5.106-8.238-11.475a108.959,108.959,0,0,1,6.934-16.828c.156-.32.328-.656.492-.975a32.173,32.173,0,0,0,10.492-5.557c1.254,16.393,24.975,30.5,24.975,30.5l2.533,4.1.6.967c-1.279.754-1.893,1.361-1.459,1.713,1.8,1.443,6.164,9.606,7.967,13.057.492.934.82,1.516.82,1.516s3.877,10.549,6.1,19.377a1.64,1.64,0,0,0-.934-.1Z" transform="translate(-196.315 -49.28)" fill="url(#a)"/><path d="M580.207,165.576l-.279.369-.951,1.27L560.74,180.1l-3.869-6.361-2.459-4.1s-36.352-21.8-20.721-42.819,38.729,26.639,38.729,26.639Z" transform="translate(-229.341 -62.294)" fill="#ffc5d3"/><rect width="0.623" height="5.131" rx="0.311" transform="matrix(0.893, -0.45, 0.45, 0.893, 313.492, 51.941)" fill="#3a3768"/><rect width="0.352" height="1.689" rx="0.176" transform="matrix(0.893, -0.45, 0.45, 0.893, 293.215, 57.65)" fill="#3a3768"/><rect width="0.393" height="2.943" rx="0.197" transform="matrix(0.893, -0.45, 0.45, 0.893, 294.592, 60.413)" fill="#3a3768"/><rect width="0.377" height="2.967" rx="0.189" transform="matrix(0.893, -0.45, 0.45, 0.893, 296.378, 63.956)" fill="#3a3768"/><rect width="20.819" height="42.311" rx="2.24" transform="matrix(0.893, -0.45, 0.45, 0.893, 290.873, 52.571)" fill="#3a3768"/><path d="M533.569,105.447a.738.738,0,0,0-.328,1l.066.139a.746.746,0,0,1-.328,1.008l-7.885,3.967a.738.738,0,0,1-1-.328l-.074-.139a.746.746,0,0,0-1-.336l-1.533.779a1.41,1.41,0,0,0-.631,1.91L537.61,146.7a1.435,1.435,0,0,0,1.918.631l13.754-6.926a1.434,1.434,0,0,0,.631-1.918l-16.762-33.27a1.426,1.426,0,0,0-1.918-.631Z" transform="translate(-227.702 -59.222)" fill="#704895"/><rect width="2.91" height="0.59" rx="0.295" transform="matrix(0.893, -0.45, 0.45, 0.893, 298.951, 49.918)" fill="#e6e8ec"/><circle cx="0.336" cy="0.336" r="0.336" transform="translate(302.022 48.168)" fill="#e6e8ec"/><path d="M549.673,261.28,544.55,398.754s17.213-5.738,19.877-1.434-2.869-68.852-2.869-68.852Z" transform="translate(-232.003 -87.507)" fill="#5f5570"/><path d="M549.673,261.28,544.55,398.754s17.213-5.738,19.877-1.434-2.869-68.852-2.869-68.852Z" transform="translate(-232.003 -87.507)" opacity="0.15"/><path d="M533.523,804.387c-10.656.549-52.729,0-52.729,0s-10.934-8.467-11.754-8.467-1.361,4.369-1.361,4.369l-17.213-4.918v-8.738s-.549-24.877,4.639-25.959,28.147,0,28.147,0c.82-.271,16.393,14.483,20.762,17.213s3.549,4.648,3.549,4.648,10.385,8.738,18.582,9.287c5.107.344,10.852,4.918,11.877,8.467C538.646,802.428,537.539,804.182,533.523,804.387Z" transform="translate(-215.034 -177.478)" fill="#bc8487"/><path d="M533.527,810.242c-10.656.549-52.729,0-52.729,0s-10.934-8.467-11.754-8.467-1.361,4.369-1.361,4.369l-17.213-4.918V792.66l16.115,5.836,12.844,7.648h58.6C538.65,808.283,537.543,810.037,533.527,810.242Z" transform="translate(-215.038 -183.333)" opacity="0.1"/><path d="M493.43,796.327s13.115-12.566,21.885-9.016" transform="translate(-222.785 -182.255)" stroke="#000" stroke-miterlimit="10" stroke-width="1" opacity="0.1"/><path d="M384.376,729.231c.549,1.639-4.369,3.828-4.369,3.828v21.582s2.229,12.959-.992,16.738A2.7,2.7,0,0,1,377,772.4c-6.008.271-19.123-40.713-19.123-40.713l-.82-23.68-3.279-2.27-4.648-30.057h8.475s.893-.549,2.328-1.287c4.1-2.09,12.68-5.738,17.344-2.262l15.844,35.7S383.835,727.592,384.376,729.231Z" transform="translate(-196.762 -161.339)" fill="#bc8487"/><path d="M379.015,772.193A2.7,2.7,0,0,1,377,773.217c-6.008.271-19.123-40.713-19.123-40.713l-.82-23.68-3.279-2.271L349.13,676.5h8.475s.893-.549,2.328-1.287L361.974,706l1.09,26.5S373.359,761.357,379.015,772.193Z" transform="translate(-196.762 -162.153)" opacity="0.1"/><path d="M536.2,581c-2.664,3.893-20.082,13.32-20.082,13.32s-7.377.41-15.983,6.967c-4.451,3.393-19.918,10.123-33.811,15.836-12.975,5.336-24.59,9.779-24.59,9.779l-13.377,15.574-10.188,11.861s-6.147-2.459-6.762,2.049-9.836,9.631-9.631,10.451-3.484,2.869-3.484,4.713-13.729-13.32-13.524-22.541-6.967-15.574-6.967-15.574,1.844-3.279,4.713-2.664a6.6,6.6,0,0,0,6.147-1.639c.82-1.025,4.3,1.434,5.943.615s8.2-17.008,8.2-17.008L428.349,595.6l50.819-34.065,2.344-1.574s6.762,3.1,4.016-22.287c-.533-4.918-1.426-10.893-2.787-18.172-8.4-44.877,21.721-50,21.721-50l26.434,8.811,6.352,9.836v.049l1.434,60.606S538.864,577.106,536.2,581Z" transform="translate(-201.933 -125.056)" fill="#433a59"/><path d="M477.209,629.937s.082,2.91.2,7.434c-12.975,5.336-24.59,9.779-24.59,9.779l-13.377,15.574c-.221-12.91-.172-29.68,0-46.868l50.819-34.065C483.98,605.093,477.209,629.937,477.209,629.937Z" transform="translate(-213.023 -145.306)" opacity="0.1"/><path d="M559.982,488.177v.049l-39.754.77s-6.967,27.254-7.992,32.991c-.254,1.41-1.8,7.434-3.975,15.713-.533-4.918-1.426-10.893-2.787-18.172-8.4-44.877,21.721-50,21.721-50l26.434,8.811Z" transform="translate(-224.69 -125.062)" opacity="0.1"/><path d="M443.062,398.414l-5.123,98.36s-3.688,144.466,0,153.892,5.123,24.18,5.123,24.18-2.254,11.27,0,14.959,9.426,7.787,9.221,9.836,21.926,13.115,33.4-4.508c0,0-6.967-9.836-5.533-14.139s-.615-10.656-.615-10.656-3.893-12.09-3.893-18.262-1.434-57.786-1.434-57.786,22.336-81.967,23.36-87.7,7.992-32.992,7.992-32.992l42.213-.82s-1.23-29.3-3.689-35.655-14.549-52.868-14.549-52.868Z" transform="translate(-212.482 -109.683)" fill="#433a59"/><path d="M194.521,469.89l-3.664,1.049-.148,3.623,109.852,1.418v-1.426Z" transform="translate(-34.392 -84.733)" fill="#7b728f"/><path d="M506.428,145.073c-15.983,32.418-6.057,39.2-4.475,40.032-3.385-1.574-47.385-22.246-41.6-27.492,3.762-3.418,6.984-18.287,8.877-28.942,1.123-6.361,1.779-11.221,1.779-11.221l46.172,8.467A217.679,217.679,0,0,0,506.428,145.073Z" transform="translate(-216.726 -61.569)" fill="#ffc5d3"/><path d="M585.92,175.461l-.951,1.271L566.7,189.617l-3.869-6.361c5.631-3.279,22.516-9.016,22.516-9.016Z" transform="translate(-235.3 -71.811)" opacity="0.1"/><path d="M602.55,205.2c-1.639,5.738-29.3,0-29.3,0l-2.869-4.508s-.287-.574-.77-1.508c-1.77-3.434-6.057-11.565-7.828-13.008-2.254-1.844,24.18-10.861,24.18-10.861l8.1,17.623a32.641,32.641,0,0,1,5.492,4.647C601.6,199.812,603.3,202.59,602.55,205.2Z" transform="translate(-235.086 -72.005)" fill="#e5e8ef"/><path d="M555.55,215s16.393,12.934,18.852,12,42.213,25.91,42.213,25.91,4.508,17.213-14.139,18.238c0,0-39.549-1.639-41.188-7.377S555.55,215,555.55,215Z" transform="translate(-233.987 -79.161)" fill="#5f5570"/><path d="M497.128,183.275,479.3,201.717l25,159.015,9.836-5.738s25.41,11.27,27.459.82,1.484-51.639,1.484-51.639l-3.328-74.409s-11.68-26.024-11.68-26.844S511.226,189.4,511.226,189.4l-7.951-6.147Z" transform="translate(-220.237 -73.435)" opacity="0.1"/><path d="M497.128,180.275,479.3,198.717l25,159.015,9.836-5.738s25.41,11.27,27.459.82,1.484-51.639,1.484-51.639l-3.328-74.409s-11.68-26.024-11.68-26.844S511.226,186.4,511.226,186.4l-7.951-6.147Z" transform="translate(-220.237 -72.894)" fill="#e5e8ef"/><path d="M501.218,182.758,496.3,192.8l4.918,5.188s17.623,35.59,14.139,56.7l3.688,69.467,11.885,11.68,9.426-10.885-4.508-63.114s-12.09-52.049-24.795-68.237l-3.689-14.344Z" transform="translate(-223.302 -72.714)" opacity="0.1"/><path d="M501.218,180.758,496.3,190.8l4.918,5.188s17.623,35.59,14.139,56.7l3.688,69.467,11.885,11.68,9.426-10.885-4.508-63.114s-12.09-52.049-24.795-68.237l-3.689-14.344Z" transform="translate(-223.302 -72.353)" fill="#bc8487"/><path d="M519.25,125.908c-4.475,7.213-8,13.565-10.754,19.156a31.518,31.518,0,0,1-8.934,1.287c-10.131,0-15.967-7.008-21.7-14.451-1.311-1.689-5.623-1.3-6.557-3.279,1.123-6.361,1.779-11.221,1.779-11.221Z" transform="translate(-218.794 -61.56)" opacity="0.1"/><path d="M530.285,106.467a31.418,31.418,0,1,1-5.975-18.434A31.417,31.417,0,0,1,530.285,106.467Z" transform="translate(-218.099 -53.922)" fill="#ffc5d3"/><path d="M487.8,189.861l-25.819-31.147s-2.385-.959,5.672-9.393c0,0,29.59,23.065,31.426,26.983S487.8,189.861,487.8,189.861Z" transform="translate(-217.053 -67.317)" opacity="0.1"/><path d="M486.8,187.861l-25.819-31.147s-2.385-.959,5.672-9.393c0,0,29.59,23.065,31.426,26.983S486.8,187.861,486.8,187.861Z" transform="translate(-216.873 -66.956)" fill="#e5e8ef"/><path d="M561.027,392.048s-4.918-2.951-4.918-6.434-2.459-52.664-2.459-52.664-3.607-29.352-7.377-52.68h0c-2.213-13.746-4.484-25.41-6.09-27.721l-.066-.1c-4.3-5.533-3.484-32.582-30.328-72.131.361.246,9.615,6.738,16.393,10a22.479,22.479,0,0,0,4.32,1.639c6.147,1.434,26.229,9.221,25.615,21.721s1.434,41.188,1.434,41.188v58.795Z" transform="translate(-225.735 -72.907)" fill="#5f5570"/><path d="M604.293,210.1c-1.639,5.738-29.3,0-29.3,0l-2.869-4.508s-.287-.574-.77-1.508a.543.543,0,0,1-.041-.1c16.074,1.123,25.033-.049,29.983-1.5C603.343,204.711,605.039,207.49,604.293,210.1Z" transform="translate(-236.829 -76.905)" opacity="0.1"/><path d="M572.3,205.247s8.606,23.77,7.377,29.713,19.877,29.3,19.877,29.3l20.082-13.934s-7.582-15.164-6.557-19.672-5.328-14.139-5.328-14.139l.41-15.967S604.472,207.476,572.3,205.247Z" transform="translate(-237.008 -76.555)" fill="#5f5570"/><path d="M524.377,88.116l-15.574.59a17.344,17.344,0,0,0-4.508.566c-5.565,1.713-8.131,7.631-8.336,12.951s-3.279,11.279-9.238,11.746a2.3,2.3,0,0,1-1.7-.377,2.8,2.8,0,0,1-.721-1.451,31.722,31.722,0,0,0-3.918-8.754c-2.459.443-4.279,2.779-4.918,5.221a29.374,29.374,0,0,0-.459,7.549,48.857,48.857,0,0,1-.926,9.582A31.416,31.416,0,1,1,524.4,88.114Z" transform="translate(-218.167 -54.006)" opacity="0.1"/><path d="M501.23,84.3a17.345,17.345,0,0,1,4.508-.566l18.91-.7c2.771-.107,5.861-.352,7.721-2.41a7.222,7.222,0,0,0,1.443-2.7,11.639,11.639,0,0,0-1.221-9.533c-2.189-3.484-6.025-5.508-9.68-7.377a112.475,112.475,0,0,0-10.467-4.918,55.737,55.737,0,0,0-41.065.59,16.573,16.573,0,0,0-3.656,1.959,18.894,18.894,0,0,0-3.984,4.754l-6.221,9.377a12.911,12.911,0,0,0-1.959,3.787c-1.172,4.451,2.459,8.9,2.082,13.483-.213,2.279-1.418,4.369-1.639,6.647-.3,2.943,1.049,5.738,2.369,8.418L469.3,127.164a48.868,48.868,0,0,0,2.647-15.983c0-2.533-.213-5.107.459-7.549s2.459-4.779,4.918-5.221a31.613,31.613,0,0,1,3.926,8.754,2.77,2.77,0,0,0,.721,1.451,2.3,2.3,0,0,0,1.7.377c5.992-.467,9.016-6.369,9.238-11.746S495.665,86.009,501.23,84.3Z" transform="translate(-215.913 -49.849)" fill="#8f7080"/><path d="M190.89,470.688l7.656-2.188,115.433,6.287-12.7,1.639Z" transform="translate(-34.424 -84.483)" fill="#7b728f"/><path d="M190.89,470.688l7.656-2.188,115.433,6.287-12.7,1.639Z" transform="translate(-34.424 -84.483)" opacity="0.1"/><path d="M340.364,586.825l-15.229-1.418-5.344-.492v-84.7l1.41-19.664.311-4.377h15.713Z" transform="translate(-57.669 -85.866)" fill="#7b728f"/><path d="M336.2,584.417l-12.147-1.344-4.262-.467V502.295l1.123-18.639.246-4.156h12.533Z" transform="translate(-57.669 -86.466)" opacity="0.1"/><path d="M401.42,516.627S409,500,412.182,499.479a48.918,48.918,0,0,1,9.016,0l-.516,4.82s-7.787.615-10.246,13.623Z" transform="translate(-206.192 -130.421)" fill="#7b728f"/><path d="M401.42,516.627S409,500,412.182,499.479a48.918,48.918,0,0,1,9.016,0l-.516,4.82s-7.787.615-10.246,13.623Z" transform="translate(-206.192 -130.421)" opacity="0.1"/><path d="M436.376,497.41s20.385,10.139,17.721,22.024l-11.065-.615s-5.328-17.721-9.525-18.647S436.376,497.41,436.376,497.41Z" transform="translate(-211.738 -130.089)" fill="#7b728f"/><path d="M506.041,275.407v.6l-.41,68.254s-10.451,57.377-13.32,59.631S426.533,400,426.533,400L398.05,207.99C397.845,175.2,421,176.227,421,176.227c3.074-4.918,17.828-8.811,17.828-8.811l8.2-7.992.262-.369a7.288,7.288,0,0,1,2.066-2.041h0c1.689-.975,2.762.311,3.377,1.582a9.532,9.532,0,0,1,.639,1.861C486.573,184.809,506.041,275.407,506.041,275.407Z" transform="translate(-205.584 -68.642)" fill="#5f5570"/><path d="M514.013,276.482v.6c-10.3-18.852-50-90.278-60.86-93.835l4.18-2.869s2.787-1.639-2.336-3.279c0,0-7.992,1.025-8.2-8.606l8.459-8.361,2.066-2.041h0l3.377,1.582a9.532,9.532,0,0,1,.639,1.861C494.546,185.885,514.013,276.482,514.013,276.482Z" transform="translate(-214.376 -68.898)" opacity="0.1"/><path d="M515.013,275.482v.6c-10.3-18.852-50-90.278-60.86-93.835l4.18-2.869s2.787-1.639-2.336-3.279c0,0-7.992,1.025-8.2-8.606l8.459-8.361,2.066-2.041h0l3.377,1.582a9.536,9.536,0,0,1,.639,1.861C495.546,184.885,515.013,275.482,515.013,275.482Z" transform="translate(-214.556 -68.718)" fill="#433a59"/><path d="M541.193,253.509l-.066-.1c-4.3-5.533-3.484-32.582-30.328-72.131.361.246,9.615,6.738,16.393,10l-1.893,6.246,4.1,2.189Z" transform="translate(-225.917 -73.08)" opacity="0.1"/><path d="M540.193,252.509l-.066-.1c-4.3-5.533-3.484-32.582-30.328-72.131.361.246,9.615,6.738,16.393,10l-1.893,6.246,4.1,2.188Z" transform="translate(-225.737 -72.9)" fill="#433a59"/><path d="M507.99,172.58l-1.68,7.1s1.229,7.107,8.6,7.721l1.189-3.385S508.146,178.916,507.99,172.58Z" transform="translate(-225.107 -71.511)" opacity="0.1"/><path d="M507.99,171.58l-1.68,7.1s1.229,7.107,8.6,7.721l1.189-3.385S508.146,177.916,507.99,171.58Z" transform="translate(-225.107 -71.331)" fill="#e5e8ef"/><path d="M329.954,477.57l-4.82,108.089-5.344-.492v-84.7L321.2,480.8Z" transform="translate(-57.669 -86.118)" opacity="0.1"/><path d="M191.509,519.316l-3.279,58.467L299.7,587.077,304.59,477.57Z" transform="translate(-33.944 -86.118)" fill="#7b728f"/><path d="M189.23,524.809l2.18-51.639,114.179,5.246-5.434,54.59Z" transform="translate(-34.125 -85.325)" opacity="0.1"/><path d="M188.23,522.809l2.18-51.639,114.179,5.246-5.434,54.59Z" transform="translate(-33.944 -84.964)" fill="#7b728f"/><rect width="13.729" height="15.983" transform="translate(202.302 437.91)" fill="#c3bbc8"/><path d="M411.738,455.78l-2.049,5.533s-4.3,30.328,1.025,34.016,21.106,3.893,21.926,2.049,6.557-22.746,6.557-22.746,5.123,15.369,7.787,14.139-6.147-30.442-6.147-30.442Z" transform="translate(-207.387 -122.582)" fill="#ffc5d3"/><path d="M410.05,425.352v29.3s21.721,4.1,31.147-2.984c0,0-8.811-28.369-5.533-35.541S410.05,425.352,410.05,425.352Z" transform="translate(-207.748 -115.104)" opacity="0.1"/><path d="M410.05,424.352v29.3s21.721,4.1,31.147-2.984c0,0-8.811-28.369-5.533-35.541S410.05,424.352,410.05,424.352Z" transform="translate(-207.748 -114.924)" fill="#e5e8ef"/><path d="M405.279,214.828l-5.738,3.074s-1.025,12.3-1.639,13.934,0,18.238,0,18.238l-.279,33.606s-.885,17.828,0,24.18,1.877,30.533,1.877,30.533,5.541,23.565,3.492,31.967.2,27.254,3.688,25.615,35.655-7.992,37.295-9.221.82-12.7,0-14.139-5.738-20.9-5.328-25.41-1.434-44.057-1.434-44.057,3.074-42.213,4.3-52.049-2.459-38.729-5.738-39.139S422.9,189.213,405.279,214.828Z" transform="translate(-205.437 -76.915)" opacity="0.1"/><path d="M403.279,212.828l-5.738,3.074s-1.025,12.3-1.639,13.934,0,18.238,0,18.238l-.279,33.606s-.885,17.828,0,24.18,1.877,30.533,1.877,30.533,5.541,23.565,3.492,31.967.2,27.254,3.688,25.615,35.655-7.992,37.295-9.221.82-12.7,0-14.139-5.738-20.9-5.328-25.41-1.434-44.057-1.434-44.057,3.074-42.213,4.3-52.049-2.459-38.729-5.738-39.139S420.9,187.213,403.279,212.828Z" transform="translate(-205.076 -76.555)" fill="#5f5570"/><g transform="translate(240.572 18.889)" opacity="0.1"><path d="M476.346,104.77c-2.459.443-4.279,2.779-4.918,5.221a29.372,29.372,0,0,0-.459,7.549,48.863,48.863,0,0,1-2.639,15.983l-10.943-22.057c-.213-.434-.434-.885-.647-1.336a29.81,29.81,0,0,0,1.877,4.41L469.56,136.6a48.861,48.861,0,0,0,2.639-15.983c0-2.533-.2-5.106.459-7.549s2.459-4.779,4.918-5.221a32.9,32.9,0,0,1,2.123,3.877A31.968,31.968,0,0,0,476.346,104.77Z" transform="translate(-456.74 -78.172)"/><path d="M538.377,72.32a11.607,11.607,0,0,1-.2,6.106,7.237,7.237,0,0,1-1.451,2.7c-1.861,2.057-4.918,2.3-7.721,2.41l-18.9.7a17.4,17.4,0,0,0-4.516.566c-5.557,1.713-8.131,7.631-8.336,12.951s-3.279,11.279-9.238,11.746a2.3,2.3,0,0,1-1.7-.377h0c.189.533.369,1.074.525,1.639a2.7,2.7,0,0,0,.713,1.451,2.3,2.3,0,0,0,1.7.377c6-.467,9.016-6.369,9.238-11.746s2.779-11.238,8.336-12.951a17.4,17.4,0,0,1,4.516-.566l18.9-.7c2.771-.107,5.861-.352,7.721-2.41a7.241,7.241,0,0,0,1.451-2.7,11.639,11.639,0,0,0-1.041-9.2Z" transform="translate(-462.074 -72.32)"/></g><path d="M512.28,481.7s7.1-3.689,9.836-3.484,27.319,31.467,27.319,31.467Z" transform="translate(-226.184 -126.627)" opacity="0.1"/><path d="M420.67,224.35s-12.975,5.541-12.631,9.369S420.67,224.35,420.67,224.35Z" transform="translate(-207.384 -80.847)" opacity="0.1"/><path d="M413.311,246.45S399.7,263.86,402.7,264.442,413.311,246.45,413.311,246.45Z" transform="translate(-206.346 -84.833)" opacity="0.1"/><path d="M469.378,278.28s1.246,38.934-8.738,43.852Z" transform="translate(-216.872 -90.573)" opacity="0.1"/><path d="M408,404.117s9.607-5.459,11.811-4.369S408,404.117,408,404.117Z" transform="translate(-207.379 -112.452)" opacity="0.1"/><path d="M410.05,414.051s6.066.434,8.943-.82S410.05,414.051,410.05,414.051Z" transform="translate(-207.748 -114.836)" opacity="0.1"/><path d="M586.7,239.41s7.525,21.615,11.861,21.615" transform="translate(-239.605 -83.563)" opacity="0.1"/><path d="M456.16,744.076s14.115-3.828,16.2,0S456.16,744.076,456.16,744.076Z" transform="translate(-216.064 -174.265)" opacity="0.1"/><path d="M401.14,675.21s-3.516,5.385,1.131,7.025S401.14,675.21,401.14,675.21Z" transform="translate(-205.912 -162.153)" opacity="0.1"/><path d="M515.8,583.53s10.656,9.492,15.688,9.77S515.8,583.53,515.8,583.53Z" transform="translate(-226.819 -145.62)" opacity="0.1"/><path d="M1014.3,109.09s-69.008-4.188-60.877,44.172c0,0-1.639,8.549,6.131,12.434,0,0,.123-3.59,7.082-2.369a32.3,32.3,0,0,0,7.492.361,15.639,15.639,0,0,0,9.156-3.762h0s19.4-8.008,26.942-39.721c0,0,5.582-6.918,5.361-8.7l-11.647,4.975s3.984,8.4.82,15.385c0,0-.377-15.082-2.615-14.754-.459.074-6.057,2.91-6.057,2.91s6.852,14.639,1.68,25.27c0,0,1.967-18.033-3.811-24.213l-8.2,4.787s8.008,15.115,2.582,27.451c0,0,1.393-18.918-4.3-26.287l-7.426,5.8s7.516,14.9,2.934,25.131c0,0-.6-22.024-4.549-23.688,0,0-6.492,5.738-7.484,8.082,0,0,5.148,10.82,1.951,16.524,0,0-1.959-14.672-3.566-14.754,0,0-6.475,9.721-7.147,16.393,0,0,.279-9.918,5.582-17.32,0,0-6.262,1.074-9.918,5.139,0,0,1.008-6.877,11.475-7.475,0,0,5.344-7.377,6.779-7.828,0,0-10.451-.869-16.787,1.934,0,0,5.582-6.484,18.7-3.533l7.377-5.984s-13.762-1.885-19.59.2c0,0,6.713-5.738,21.565-1.557l7.984-4.779s-11.729-2.525-18.713-1.639c0,0,7.377-3.975,21.049.336l5.738-2.566s-8.59-1.689-11.107-1.951-2.656-.967-2.656-.967a29.828,29.828,0,0,1,16.148,1.8S1014.513,109.819,1014.3,109.09Z" transform="translate(-305.617 -60.045)" fill="#704895"/><path d="M854.613,97.791s-31.147-1.877-27.508,19.975a5.331,5.331,0,0,0,2.771,5.615s.057-1.639,3.2-1.074a13.975,13.975,0,0,0,3.393.164,7.066,7.066,0,0,0,4.1-1.7h0s8.762-3.623,12.172-17.951c0,0,2.525-3.123,2.459-3.926l-5.279,2.246s1.8,3.8.385,6.951c0,0-.172-6.811-1.189-6.656-.2,0-2.73,1.32-2.73,1.32s3.09,6.615.754,11.418c0,0,.893-8.147-1.721-10.943l-3.7,2.164s3.615,6.828,1.164,12.4c0,0,.631-8.549-1.943-11.877l-3.353,2.623s3.393,6.729,1.32,11.352c0,0-.271-9.951-2.049-10.7,0,0-2.934,2.59-3.385,3.656,0,0,2.328,4.918.885,7.467,0,0-.885-6.631-1.639-6.664,0,0-2.926,4.393-3.229,7.377a15.9,15.9,0,0,1,2.524-7.82,8.787,8.787,0,0,0-4.483,2.32s.459-3.107,5.2-3.377c0,0,2.418-3.336,3.066-3.533,0,0-4.721-.4-7.59.869,0,0,2.525-2.926,8.451-1.639l3.279-2.7s-6.221-.82-8.852.09c0,0,3.033-2.59,9.738-.7l3.615-2.156s-5.3-1.139-8.459-.73c0,0,3.328-1.8,9.516.148l2.574-1.156s-3.877-.762-5.016-.885-1.2-.434-1.2-.434a13.532,13.532,0,0,1,7.295.82S854.711,98.135,854.613,97.791Z" transform="translate(-282.905 -58.017)" fill="#704895"/><ellipse cx="22.074" cy="3.729" rx="22.074" ry="3.729" transform="translate(671.855 588.794)" fill="#6c63ff" opacity="0.1"/><ellipse cx="22.074" cy="3.729" rx="22.074" ry="3.729" transform="translate(0 533.278)" fill="#6c63ff" opacity="0.1"/><ellipse cx="22.074" cy="3.729" rx="22.074" ry="3.729" transform="translate(656.494 516.557)" fill="#6c63ff" opacity="0.1"/><ellipse cx="22.074" cy="3.729" rx="22.074" ry="3.729" transform="translate(85.376 553.286)" fill="#6c63ff" opacity="0.1"/><ellipse cx="22.074" cy="3.729" rx="22.074" ry="3.729" transform="translate(558.102 556.491)" fill="#6c63ff" opacity="0.1"/><ellipse cx="32.959" cy="5.574" rx="32.959" ry="5.574" transform="translate(612.659 626.917)" fill="#704895"/><path d="M960.814,806.458a9.573,9.573,0,0,0,3.139-4.738,4.228,4.228,0,0,0-2.2-4.828c-2.016-.771-4.172.623-5.8,2.033s-3.508,3.025-5.647,2.73a8.607,8.607,0,0,0,2.664-8.049,3.384,3.384,0,0,0-.746-1.639c-1.115-1.2-3.148-.68-4.483.262-4.262,3-5.451,8.787-5.475,14-.426-1.885-.066-3.844-.082-5.738s-.533-4.1-2.164-5.1a6.556,6.556,0,0,0-3.279-.779c-1.918-.066-4.049.123-5.352,1.525-1.639,1.738-1.2,4.664.2,6.557s3.566,3.115,5.549,4.443a12.206,12.206,0,0,1,3.959,3.779,3.143,3.143,0,0,1,.295.672h12.016a33.517,33.517,0,0,0,7.4-5.131Z" transform="translate(-301.574 -183.083)" fill="#704895"/></g></svg>