<svg xmlns="http://www.w3.org/2000/svg" width="41.718" height="64.894" viewBox="0 0 41.718 64.894"><g transform="translate(-5.555)"><path d="M33.451,11.589C33.451,5.191,29.266,0,21.589,0S10,5.191,10,11.589v2.764H33.449V11.589Z" transform="translate(4.824)" fill="#bbdff7"/><path d="M21.589,33.19c7.677,0,11.862-5.186,11.862-11.585V7.851H10V21.6C10,28,13.9,33.19,21.589,33.19Z" transform="translate(4.824 8.528)" fill="#bbdff7"/><path d="M42.638,7.323V23.55c0,8.946-6,16.222-16.225,16.222S10.189,32.5,10.189,23.55V7.323a2.933,2.933,0,0,0-4.634,0V23.55A20.857,20.857,0,0,0,24.1,44.272v7.2l-9.238.021L12.5,58.31H39.56l-2.305-6.845-8.526,0v-7.2a20.855,20.855,0,0,0,18.54-20.722h0V7.323C44.428,4.484,42.638,7.323,42.638,7.323Z" transform="translate(0 6.584)" fill="#bbdff7"/></g></svg>