<svg xmlns="http://www.w3.org/2000/svg" width="66.761" height="75.788" viewBox="0 0 66.761 75.788"><g transform="translate(-1.014)"><g transform="translate(1.014)"><path d="M26.409,0H21.735a4.474,4.474,0,0,0-4.474,4.474V60.658a4.472,4.472,0,0,0,4.385,4.469A8.484,8.484,0,0,1,4.838,63.485V42.065a1.912,1.912,0,1,0-3.824,0v21.42a12.3,12.3,0,0,0,24.5,1.651h.9a4.481,4.481,0,0,0,4.478-4.478V4.478A4.488,4.488,0,0,0,26.409,0Z" transform="translate(-1.014)" fill="#bbdff7"/><path d="M39.353,1.595H8.149V56.324h31.2a3.791,3.791,0,0,0,3.8-3.793V5.388A3.791,3.791,0,0,0,39.353,1.595ZM20,50.72H13.37V44.092H20Zm0-9.236H13.37V34.851H20Zm.049-9.174H13.419V25.677h6.632ZM29.484,50.72H22.847V44.092h6.637Zm0-9.236H22.847V34.851h6.637Zm.045-9.174H22.892V25.677h6.637ZM38.961,50.72H32.328V44.092h6.632Zm0-9.236H32.328V34.851h6.632Zm.049-9.174H32.373V25.677H39.01Zm.027-19.63H12.262V4.858H39.037v7.821Z" transform="translate(23.611 5.505)" fill="#bbdff7"/><path d="M6.637,56.324H8.956V1.595H6.637A3.8,3.8,0,0,0,2.844,5.388V52.536A3.792,3.792,0,0,0,6.637,56.324Z" transform="translate(5.302 5.505)" fill="#bbdff7"/></g></g></svg>